# File created by Blade
# Date/Time:  Mon Sep 22 17:23:16 2014
# Frame Rate: 120.000 fps
#------------------------------------------------------
:FULLY-SPECIFIED
:DEGREES
3924
root 0.790638 39.223045 -0.711360 15.729235 -9.319291 -33.197917
RightUpLeg -21.806526 0.250920 -21.474234
RightLeg 121.677625 -0.000000 -0.000000
RightFoot 17.245567 -16.446519 6.265586
RightToeBase 0.231433 -0.000000 -0.000000
LeftUpLeg -8.056705 -10.268791 30.066992
LeftLeg 15.302980 -0.000000 -0.000000
LeftFoot -17.113280 12.738864 -15.286506
LeftToeBase 0.520908 -0.000000 -0.000000
Spine 9.867471 -15.311329 11.488674
RightShoulder -5.951412 -31.854124 -4.113110
RightArm 13.740097 -13.139216 58.202023
RightForeArm -192.079759 0.000000 107.428695
RightHand 92.800856 -0.000000 -164.349296
RightHandThumb1 -24.326973 -0.000000 -32.862282
LeftShoulder -23.522633 33.161384 6.944114
LeftArm 59.226580 -26.041994 -61.866424
LeftForeArm 59.058654 -0.000000 131.146452
LeftHand -27.388416 -0.000000 -18.407235
LeftHandThumb1 -26.253704 0.000000 33.147579
Head 1.533509 34.373950 31.451235
3925
root 0.807695 39.187605 -0.690168 15.567113 -9.513239 -32.932108
RightUpLeg -21.994823 -0.360830 -21.074908
RightLeg 121.040400 -0.000000 -0.000000
RightFoot 16.872419 -16.579103 6.412502
RightToeBase 0.321959 -0.000000 -0.000000
LeftUpLeg -7.886692 -10.370162 29.681097
LeftLeg 15.395985 -0.000000 -0.000000
LeftFoot -17.289956 12.812069 -15.216260
LeftToeBase 0.440150 -0.000000 -0.000000
Spine 9.929800 -15.140175 11.389342
RightShoulder -6.007838 -31.951536 -4.147074
RightArm 13.657015 -13.052891 58.223632
RightForeArm -192.092864 0.000000 107.457632
RightHand 92.869269 0.000000 -164.096826
RightHandThumb1 -24.326973 -0.000000 -32.862282
LeftShoulder -23.501926 33.115204 6.845992
LeftArm 59.182186 -25.975967 -61.645169
LeftForeArm 58.970222 -0.000000 130.957931
LeftHand -27.660373 -0.000000 -18.228474
LeftHandThumb1 -26.253704 0.000000 33.147579
Head 1.509169 34.530753 31.164874
3926
root 0.824097 39.154433 -0.671381 15.424887 -9.738400 -32.681580
RightUpLeg -22.235747 -0.985683 -20.645649
RightLeg 120.393114 -0.000000 -0.000000
RightFoot 16.459402 -16.776196 6.730175
RightToeBase 0.247956 -0.000000 -0.000000
LeftUpLeg -7.729509 -10.416950 29.297617
LeftLeg 15.504297 -0.000000 -0.000000
LeftFoot -17.453151 12.888602 -15.133762
LeftToeBase 0.434126 -0.000000 -0.000000
Spine 9.985616 -14.925203 11.286229
RightShoulder -6.098191 -32.034829 -4.133199
RightArm 13.602098 -13.003753 58.203821
RightForeArm -192.122192 -0.000000 107.455276
RightHand 92.833115 0.000000 -164.053607
RightHandThumb1 -24.326973 -0.000000 -32.862282
LeftShoulder -23.527136 32.979967 6.760429
LeftArm 59.165177 -25.800001 -61.461999
LeftForeArm 58.838269 0.000000 130.720730
LeftHand -27.791586 -0.000000 -18.214535
LeftHandThumb1 -26.253704 0.000000 33.147579
Head 1.460306 34.607644 30.871247
3927
root 0.834436 39.130362 -0.657070 15.322623 -9.951105 -32.501862
RightUpLeg -22.533271 -1.628145 -20.083368
RightLeg 119.768192 -0.000000 -0.000000
RightFoot 16.105848 -16.890126 6.856669
RightToeBase -0.101431 -0.000000 0.000000
LeftUpLeg -7.612128 -10.481774 28.996296
LeftLeg 15.642829 -0.000000 -0.000000
LeftFoot -17.603620 13.046465 -15.078760
LeftToeBase 0.396643 -0.000000 -0.000000
Spine 10.006306 -14.691926 11.238214
RightShoulder -6.179509 -32.138461 -4.059178
RightArm 13.566966 -12.920814 58.120943
RightForeArm -192.017677 0.000000 107.419341
RightHand 92.873496 -0.000000 -163.964215
RightHandThumb1 -24.326973 -0.000000 -32.862282
LeftShoulder -23.565338 32.910719 6.768329
LeftArm 59.145348 -25.535901 -61.332697
LeftForeArm 58.729536 -0.000000 130.438135
LeftHand -27.531534 -0.000000 -18.046873
LeftHandThumb1 -26.253704 0.000000 33.147579
Head 1.422962 34.552881 30.599632
3928
root 0.846329 39.108136 -0.644675 15.231228 -10.196202 -32.332714
RightUpLeg -22.856088 -2.266868 -19.514829
RightLeg 119.154547 -0.000000 -0.000000
RightFoot 15.620806 -16.950672 6.708180
RightToeBase -0.080056 -0.000000 0.000000
LeftUpLeg -7.508636 -10.448064 28.689027
LeftLeg 15.832125 -0.000000 -0.000000
LeftFoot -17.761658 13.148711 -15.021232
LeftToeBase 0.441910 -0.000000 -0.000000
Spine 10.035488 -14.440460 11.210188
RightShoulder -6.242883 -32.167498 -4.047997
RightArm 13.500869 -12.902607 58.109271
RightForeArm -192.051220 -0.000000 107.330102
RightHand 92.885547 0.000000 -163.921925
RightHandThumb1 -24.326973 -0.000000 -32.862282
LeftShoulder -23.547001 32.766606 6.774529
LeftArm 59.019315 -25.343694 -61.204595
LeftForeArm 58.587951 -0.000000 130.201692
LeftHand -27.490440 -0.000000 -18.009664
LeftHandThumb1 -26.253704 0.000000 33.147579
Head 1.413340 34.782160 30.448111
3929
root 0.857771 39.086793 -0.630579 15.162349 -10.437500 -32.164935
RightUpLeg -23.216513 -2.992615 -18.946251
RightLeg 118.550784 -0.000000 -0.000000
RightFoot 15.160925 -17.118296 6.793950
RightToeBase -0.063459 -0.000000 0.000000
LeftUpLeg -7.426747 -10.393074 28.382436
LeftLeg 16.012848 -0.000000 -0.000000
LeftFoot -17.890816 13.253015 -14.935759
LeftToeBase 0.493378 -0.000000 -0.000000
Spine 10.060598 -14.201807 11.185046
RightShoulder -6.390432 -32.205516 -3.989158
RightArm 13.554560 -12.931507 58.020562
RightForeArm -192.060582 -0.000000 107.176503
RightHand 92.869072 -0.000000 -163.975676
RightHandThumb1 -24.326973 -0.000000 -32.862282
LeftShoulder -23.642835 32.659608 6.720483
LeftArm 58.983181 -25.123591 -61.100204
LeftForeArm 58.393597 -0.000000 129.957349
LeftHand -27.435144 -0.000000 -17.802922
LeftHandThumb1 -26.253704 0.000000 33.147579
Head 1.306242 34.913505 30.184678
